<svg id="Layer_1" data-name="Layer 1" xmlns="http://www.w3.org/2000/svg" viewBox="0 0 64 66.9"><title>Artboard 1</title><path d="M18,25v-.4l.6.3a11.27,11.27,0,0,0,7,14.4,11.93,11.93,0,0,0,3.7.6h1.2a11.25,11.25,0,0,0,8.4-19,3.07,3.07,0,0,0-.6-2.8,3,3,0,0,0,0-4,3,3,0,0,0-.2-4.2A3.24,3.24,0,0,0,36,9h-.2l-1.4.2,1.5-6A1,1,0,0,0,35.2,2a1.34,1.34,0,0,0-.8.2L32.2,3.6,30.8,1.4a1,1,0,0,0-1.4-.3l-.3.3L27.6,4,25.4,3a1,1,0,0,0-1.3.5,2,2,0,0,0-.1.7l.6,2.3L18,9.5V9a.94.94,0,0,0-1-1H9A.94.94,0,0,0,8,9H1v2H8V23H1v2H8a.94.94,0,0,0,1,1h8A.94.94,0,0,0,18,25Zm22,3.6A9.39,9.39,0,0,1,30.6,38H29.4A9.39,9.39,0,0,1,20,28.6a8.63,8.63,0,0,1,.4-2.8l2.1,1.1a.9.9,0,0,0,.5.1h4a3,3,0,0,0,3,3,1,1,0,1,1-1,1H27a2.91,2.91,0,0,0,2,2.8V36h2V33.8A2.89,2.89,0,0,0,32.8,30,3,3,0,0,0,30,28a.94.94,0,0,1-1-1h5a3,3,0,0,0,3-3,4.25,4.25,0,0,0-.2-1.1,3.55,3.55,0,0,0,.9-.4A9.26,9.26,0,0,1,40,28.6ZM27.6,6.3a1.09,1.09,0,0,0,1.3-.4l1.2-2,1.1,1.7a1,1,0,0,0,1.4.3h0l.8-.6L32.3,9.6l-4.7.7L26.5,5.8ZM18,11.6l7.1-3.1.5,2.1-2.8.4.3,2L36,11a1,1,0,0,1,0,2H33v2h3a1,1,0,0,1,0,2H33v2h3a1,1,0,0,1,0,2H33v2h1a1,1,0,0,1,0,2H23.2L18,22.4ZM16,24H10V10h6Z"/><path d="M63,48V46H58a.94.94,0,0,0-1-1H49a.94.94,0,0,0-1,1v1.6A9.23,9.23,0,0,0,41.5,45H40.2a4.57,4.57,0,0,0-3.8,2H30a2.85,2.85,0,0,0-2.5,1.4l-5-4.2a3.78,3.78,0,0,0-5.3-.2A3.63,3.63,0,0,0,16,46.8V47a3.47,3.47,0,0,0,1,2.5l6.3,7A8.21,8.21,0,0,0,29,59.1h0L48,60v2a.94.94,0,0,0,1,1h8a.94.94,0,0,0,1-1h5V60H58V48ZM48,57.9,29,57a5.91,5.91,0,0,1-4.3-1.9l-6.3-7a2.2,2.2,0,0,1-.5-1.2v-.2A1.65,1.65,0,0,1,19.7,45a1.61,1.61,0,0,1,1.3.6l.1.1,5.9,5A3.21,3.21,0,0,0,30,53h7V51H30a1,1,0,0,1,0-2h7a1,1,0,0,0,.9-.6A2.44,2.44,0,0,1,40.2,47h1.3a7.6,7.6,0,0,1,5.2,2.1A23.92,23.92,0,0,1,48,51.2ZM56,61H50V47h6Z"/></svg>