<?xml version="1.0" encoding="utf-8"?>
<!-- Generator: Adobe Illustrator 24.0.2, SVG Export Plug-In . SVG Version: 6.00 Build 0)  -->
<svg version="1.1" id="Layer_1" xmlns="http://www.w3.org/2000/svg" xmlns:xlink="http://www.w3.org/1999/xlink" x="0px" y="0px"
	 viewBox="0 0 64 64.9" style="enable-background:new 0 0 64 64.9;" xml:space="preserve">
<path d="M60,27H36c-1.7,0-3,1.4-3,3v30c0,1.7,1.3,3,3,3h24c1.7,0,3-1.3,3-3V30C63,28.4,61.7,27,60,27z M61,60c0,0.5-0.5,1-1,1H36
	c-0.5,0-1-0.5-1-1V30c0-0.5,0.5-1,1-1h24c0.5,0,1,0.5,1,1V60z"/>
<path d="M27,19v-0.5c0-2.3-1.8-4.2-4-4.4V12h-2v2.1c-2.2,0.2-4,2.1-4,4.4c0,2.5,2,4.5,4.5,4.5h1c1.4,0,2.5,1.1,2.5,2.5
	S23.9,28,22.5,28h-1c-1.4,0-2.5-1.1-2.5-2.5V25h-2v0.5c0,2.3,1.8,4.2,4,4.5v2h2v-2c2.2-0.2,4-2.1,4-4.5c0-2.5-2-4.5-4.5-4.5h-1
	c-1.4,0-2.5-1.1-2.5-2.5s1.1-2.5,2.5-2.5h1c1.4,0,2.5,1.1,2.5,2.5V19H27z"/>
<path d="M30.4,41.2l-0.8-1.8c-2.4,1-5,1.6-7.6,1.6C11.5,41,3,32.5,3,22S11.5,3,22,3s19,8.5,19,19c0,0.6,0,1.3-0.1,1.9l2,0.2
	C43,23.4,43,22.7,43,22c0-11.6-9.4-21-21-21S1,10.4,1,22s9.4,21,21,21C24.9,43,27.8,42.4,30.4,41.2z"/>
<path d="M58,32H38c-0.5,0-1,0.5-1,1v6c0,0.5,0.5,1,1,1h20c0.5,0,1-0.5,1-1v-6C59,32.5,58.5,32,58,32z M57,38H39v-4h18V38z"/>
<path d="M42,43h-4c-0.5,0-1,0.5-1,1v4c0,0.5,0.5,1,1,1h4c0.5,0,1-0.5,1-1v-4C43,43.5,42.5,43,42,43z M41,47h-2v-2h2V47z"/>
<path d="M50,43h-4c-0.5,0-1,0.5-1,1v4c0,0.5,0.5,1,1,1h4c0.5,0,1-0.5,1-1v-4C51,43.5,50.5,43,50,43z M49,47h-2v-2h2V47z"/>
<path d="M58,43h-4c-0.5,0-1,0.5-1,1v4c0,0.5,0.5,1,1,1h4c0.5,0,1-0.5,1-1v-4C59,43.5,58.5,43,58,43z M57,47h-2v-2h2V47z"/>
<path d="M42,52h-4c-0.5,0-1,0.5-1,1v4c0,0.5,0.5,1,1,1h4c0.5,0,1-0.5,1-1v-4C43,52.5,42.5,52,42,52z M41,56h-2v-2h2V56z"/>
<path d="M50,52h-4c-0.5,0-1,0.5-1,1v4c0,0.5,0.5,1,1,1h4c0.5,0,1-0.5,1-1v-4C51,52.5,50.5,52,50,52z M49,56h-2v-2h2V56z"/>
<path d="M58,52h-4c-0.5,0-1,0.5-1,1v4c0,0.5,0.5,1,1,1h4c0.5,0,1-0.5,1-1v-4C59,52.5,58.5,52,58,52z M57,56h-2v-2h2V56z"/>
</svg>
