<?xml version="1.0" encoding="utf-8"?>
<!-- Generator: Adobe Illustrator 24.0.2, SVG Export Plug-In . SVG Version: 6.00 Build 0)  -->
<svg version="1.1" id="Layer_1" xmlns="http://www.w3.org/2000/svg" xmlns:xlink="http://www.w3.org/1999/xlink" x="0px" y="0px"
	 viewBox="0 0 67 68" style="enable-background:new 0 0 67 68;" xml:space="preserve">
<g>
	<path d="M14.2,48.6c-0.4,0.4-0.5,1-0.1,1.4c0.3,0.4,0.7,0.8,1.1,1.2c4.7,4.7,10.9,7.3,17.6,7.3c32.6,0,32.9-50,0-50
		c-10.5,0-19.2,6.4-22.9,15.2l-0.8-2.2c-0.2-0.5-0.8-0.8-1.3-0.6c-0.5,0.2-0.8,0.8-0.6,1.3L9,26.9c0.2,0.6,1,0.8,1.5,0.5l4.4-1.7
		c0.5-0.2,0.8-0.8,0.6-1.3s-0.8-0.8-1.3-0.6l-2.6,1c3.3-8.3,11.5-14.3,21.2-14.3c30.4,0,29.8,46,0,46c-6.1,0-11.9-2.4-16.2-6.7
		c-0.3-0.3-0.7-0.7-1-1.1C15.3,48.3,14.7,48.2,14.2,48.6z"/>
	<path d="M65.9,19.3c-0.1,0-4.6-1.9-4.7-1.9c-0.5-0.2-1,0.1-1.2,0.6l-1.9,4.6c-0.2,0.5,0,1.1,0.6,1.3c0.5,0.2,1.1,0,1.3-0.6l1.2-3.1
		c1.9,4.1,2.9,8.6,2.9,13.2c0,17.1-13.8,31-30.8,31S2.5,50.6,2.5,33.5s13.8-31,30.8-31c0.7,0,1.3,0,1.9,0.1c0.5,0,1-0.4,1.1-0.9
		c0-0.6-0.4-1-0.9-1.1c-0.7,0-1.4-0.1-2.1-0.1c-18.1,0-32.8,14.8-32.8,33s14.7,33,32.8,33s32.8-14.8,32.8-33c0-4.5-0.9-8.9-2.7-13
		l1.7,0.7c0.5,0.2,1.1,0,1.3-0.6C66.6,20.1,66.4,19.5,65.9,19.3z"/>
	<path d="M33.3,50.5c9.3,0,16.9-7.6,16.9-17s-7.6-17-16.9-17s-16.9,7.6-16.9,17S24,50.5,33.3,50.5z M33.3,18.5
		c8.2,0,14.9,6.7,14.9,15s-6.7,15-14.9,15s-14.9-6.7-14.9-15S25.1,18.5,33.3,18.5z"/>
	<path d="M28.8,36.9l-1.7,2c1.7,1.5,3.6,2.3,5.7,2.5v1.7h1.5v-1.7c2.9-0.1,5.2-1.8,5.2-4.7c0-3.1-2.2-4.1-5.2-4.8h-0.1v-4.4
		c1.2,0.2,2.3,0.6,3.3,1.3l1.5-2.1c-1.5-1-3.1-1.6-4.8-1.7v-1.2h-1.5V25c-2.8,0.1-5,1.8-5,4.7c0,3,2,4,5,4.7v4.5
		C31.4,38.7,30.1,38,28.8,36.9z M34.3,34.8c1.4,0.4,2.4,0.8,2.4,2.2c0,1.3-1.2,1.9-2.4,2V34.8z M30.6,29.4c0-1.2,1-1.8,2.2-1.9v4
		C31.5,31.1,30.6,30.7,30.6,29.4z"/>
</g>
</svg>
